<svg xmlns="http://www.w3.org/2000/svg" viewBox="0 0 512 512" width="512" height="512">
  <defs>
    <linearGradient id="bg" x1="0" y1="0" x2="1" y2="1">
      <stop offset="0" stop-color="#16a34a" />
      <stop offset="1" stop-color="#15803d" />
    </linearGradient>
  </defs>
  <rect width="512" height="512" rx="112" fill="url(#bg)" />
  <path
    d="M256 96c-70 40-120 104-120 184 0 62 42 112 104 124v-92l-40-40 12-12 28 28v-64l-36-36 12-12 24 24V96z"
    fill="#f0fdf4"
    opacity="0.95"
  />
  <path
    d="M256 96c70 40 120 104 120 184 0 62-42 112-104 124v-92l40-40-12-12-28 28v-64l36-36-12-12-24 24V96z"
    fill="#dcfce7"
    opacity="0.9"
  />
</svg>
